<svg width="797" height="155" viewBox="0 0 797 155" fill="none" xmlns="http://www.w3.org/2000/svg">
<path d="M37.5639 43.3883L48.3777 11.2849C49.6749 7.43397 54.3444 5.95911 57.6182 8.36629L115.595 50.9965C117.637 52.498 118.515 55.1206 117.789 57.549L105.242 99.5195C104.768 101.103 103.663 102.42 102.187 103.162L12.9787 147.98C8.19724 150.382 2.90094 145.797 4.59306 140.721L16.7219 104.334C17.2205 102.839 18.2877 101.599 19.6929 100.884L100.094 59.9701C101.263 59.3749 102 58.1734 102 56.8609C102 54.9848 100.516 53.4446 98.6414 53.3747L43.0263 51.2995C39.0195 51.15 36.284 47.1881 37.5639 43.3883Z" fill="#271B62"/>
<path d="M195.138 47.2139L206.309 15.935C208.21 10.6129 202.371 5.8543 197.542 8.79006L126.056 52.2503C124.736 53.0524 123.777 54.3323 123.377 55.8237L112.183 97.5851C111.484 100.193 112.613 102.947 114.942 104.313L187.742 147.034C191.149 149.034 195.525 147.252 196.567 143.442L209.927 94.5825C210.971 90.7648 208.097 87 204.139 87H144.982C143.19 87 142.934 84.4131 144.691 84.0617C144.895 84.021 145.088 83.9381 145.257 83.8183L192.951 50.095C193.959 49.3824 194.723 48.3763 195.138 47.2139Z" fill="#271B62"/>
<path d="M265.636 82.2268C265.636 92.983 268.221 101.154 273.39 106.741C278.643 112.244 285.439 114.996 293.777 114.996C302.199 114.996 308.994 112.244 314.164 106.741C319.333 101.238 321.918 93.2331 321.918 82.727V78.2245C321.918 71.0536 320.709 65.0085 318.291 60.089C315.956 55.0861 312.663 51.3339 308.41 48.8325C304.158 46.2477 299.28 44.9553 293.777 44.9553C288.274 44.9553 283.396 46.2477 279.144 48.8325C274.974 51.3339 271.681 55.0444 269.263 59.9639C266.845 64.8 265.636 70.7201 265.636 77.7242V82.2268ZM333.925 82.2268C333.925 90.8984 332.216 98.4028 328.797 104.74C325.462 111.077 320.793 115.955 314.789 119.373C308.786 122.792 301.782 124.501 293.777 124.501C285.856 124.501 278.852 122.792 272.765 119.373C266.761 115.955 262.05 111.118 258.632 104.865C255.296 98.6112 253.629 91.232 253.629 82.727V78.2245C253.629 69.5528 255.338 62.0068 258.757 55.5864C262.175 49.166 266.886 44.2048 272.89 40.7028C278.977 37.2008 285.939 35.4498 293.777 35.4498C301.782 35.4498 308.786 37.2008 314.789 40.7028C320.793 44.2048 325.462 49.1243 328.797 55.4613C332.216 61.7149 333.925 69.1359 333.925 77.7242V82.2268ZM410.35 93.2331C410.35 99.4867 409.099 104.948 406.598 109.618C404.097 114.204 400.72 117.747 396.467 120.249C392.298 122.75 387.629 124.001 382.459 124.001C378.29 124.001 374.496 123.25 371.077 121.75C367.659 120.165 364.74 117.914 362.322 114.996C359.988 112.077 358.32 108.575 357.32 104.49L361.197 107.491V145.013H349.94V59.9639H360.696V74.9726L357.32 77.9743C359.071 71.8041 362.197 67.0096 366.7 63.591C371.286 60.1724 376.622 58.463 382.709 58.463C387.962 58.463 392.673 59.7138 396.842 62.2152C401.011 64.7167 404.305 68.2604 406.723 72.8463C409.141 77.4323 410.35 82.8938 410.35 89.2308V93.2331ZM380.583 114.996C386.253 114.996 390.714 113.036 393.966 109.117C397.301 105.198 398.969 99.9036 398.969 93.2331V89.2308C398.969 82.5603 397.301 77.2656 393.966 73.3466C390.63 69.4277 386.128 67.4682 380.458 67.4682C374.871 67.4682 370.244 69.386 366.575 73.2216C362.989 76.9737 361.197 81.8932 361.197 87.9801V94.4838C361.197 98.4861 362.072 102.03 363.823 105.115C365.574 108.2 367.909 110.618 370.827 112.369C373.746 114.12 376.998 114.996 380.583 114.996ZM423.625 89.9812C423.625 83.5609 424.876 78.016 427.378 73.3466C429.879 68.5939 433.381 64.9251 437.884 62.3403C442.386 59.7555 447.556 58.463 453.393 58.463C459.062 58.463 464.024 59.6721 468.276 62.0901C472.529 64.5082 475.822 68.0102 478.157 72.5962C480.491 77.0988 481.659 82.4769 481.659 88.7305V92.983H432.38V84.4781H472.529L470.402 86.9795C470.402 80.8927 468.818 76.0982 465.65 72.5962C462.564 69.0108 458.312 67.2181 452.892 67.2181C447.472 67.2181 443.137 69.0525 439.885 72.7213C436.633 76.3067 435.007 81.2262 435.007 87.4798V93.8585C435.007 100.446 436.758 105.657 440.26 109.492C443.845 113.328 448.348 115.246 453.768 115.246C458.187 115.246 461.647 114.245 464.149 112.244C466.734 110.243 468.443 107.867 469.277 105.115H480.533C479.199 110.702 476.197 115.246 471.528 118.748C466.859 122.25 460.939 124.001 453.768 124.001C447.681 124.001 442.344 122.708 437.759 120.124C433.256 117.539 429.754 113.953 427.252 109.367C424.834 104.698 423.625 99.2366 423.625 92.983V89.9812ZM496.509 122.5V59.9639H507.265V72.4711H505.89C507.974 67.9685 510.851 64.5082 514.52 62.0901C518.188 59.6721 522.483 58.463 527.402 58.463C531.654 58.463 535.49 59.3802 538.909 61.2146C542.327 63.049 545.037 65.8006 547.038 69.4694C549.123 73.1382 550.165 77.8075 550.165 83.4775V122.5H538.909V84.4781C538.909 79.225 537.616 75.0976 535.031 72.0959C532.447 69.0108 528.945 67.4682 524.525 67.4682C519.606 67.4682 515.562 69.3443 512.393 73.0965C509.308 76.7653 507.766 81.4346 507.766 87.1046V122.5H496.509ZM569.224 122.5V37.4509H623.63V46.9564H580.731V75.2227H622.38V84.7282H580.731V122.5H569.224ZM639.902 122.5V34.9495H651.159V122.5H639.902ZM722.73 59.9639V122.5H711.973V110.243H713.349C711.265 114.662 708.388 118.081 704.719 120.499C701.134 122.834 696.881 124.001 691.962 124.001C687.793 124.001 683.999 123.125 680.58 121.374C677.162 119.623 674.452 116.955 672.451 113.37C670.449 109.701 669.449 105.157 669.449 99.7369V59.9639H680.705V98.7363C680.705 103.739 681.956 107.7 684.457 110.618C686.959 113.536 690.419 114.996 694.838 114.996C699.758 114.996 703.76 113.245 706.845 109.743C709.931 106.157 711.473 101.613 711.473 96.1098V59.9639H722.73ZM734.395 122.5L760.785 86.6043L760.41 93.9835L736.146 59.9639H749.153L767.539 87.3547H762.286L780.671 59.9639H792.428L768.289 93.8585L768.539 86.4792L794.679 122.5H781.547L761.41 92.983L767.038 93.108L746.276 122.5H734.395Z" fill="#271B62"/>
</svg>
